<?xml version="1.0" encoding="utf-8"?>
<!-- Generator: Adobe Illustrator 19.2.1, SVG Export Plug-In . SVG Version: 6.00 Build 0)  -->
<svg version="1.1" id="layer" xmlns="http://www.w3.org/2000/svg" xmlns:xlink="http://www.w3.org/1999/xlink" x="0px" y="0px"
	 viewBox="0 0 652 652" style="enable-background:new 0 0 652 652;" xml:space="preserve">
<style type="text/css">
	.st0{fill:#003366;}
	.st1{fill:#FFCC33;}
</style>
<g>
	<path class="st0" d="M268.2,389.3c-1.4,5.9-4.7,9.9-11.2,9.9c-7.1,0-12.1-5.2-12.1-16.3c0-10.3,4.5-16.3,12.1-16.3
		c5.9,0,9.3,3.4,10.7,9.2l-3.3,1c-1.1-4.5-3.2-7.2-7.9-7.2c-4.6,0-8.2,4.2-8.2,13.3c0,9.2,3.6,13.3,8.9,13.3c4.9,0,6.8-3.7,7.7-7.6
		L268.2,389.3z"/>
	<path class="st0" d="M280.9,399.2c-6.2,0-9.4-5.3-9.4-11.9c0-6.6,3.1-11.9,9.4-11.9c6.2,0,9.4,5.3,9.4,11.9
		C290.3,393.9,287.2,399.2,280.9,399.2 M280.9,378.2c-3.8,0-6.2,3.3-6.2,9.1c0,5.9,2.4,9.1,6.2,9.1c3.8,0,6.2-3.3,6.2-9.1
		C287.1,381.5,284.7,378.2,280.9,378.2"/>
	<path class="st0" d="M299.4,375.9v3.1h0.1c1.8-2,4.2-3.5,6.8-3.5c3.4,0,6.6,1.8,6.6,6.7v16.6h-3.2v-16.5c0-3-1.4-4-3.7-4
		c-2.4,0-5.1,1.9-6.6,3.5v17.1h-3.2v-22.9H299.4z"/>
	<path class="st0" d="M324.1,375.9v3.1h0.1c1.8-2,4.2-3.5,6.8-3.5c3.4,0,6.6,1.8,6.6,6.7v16.6h-3.2v-16.5c0-3-1.4-4-3.7-4
		c-2.4,0-5.1,1.9-6.6,3.5v17.1h-3.2v-22.9H324.1z"/>
	<path class="st0" d="M362.4,393.9c-1.5,2.6-3.6,5.3-8.8,5.3c-5.1,0-9.9-3.5-9.9-11.9c0-7.4,3.7-11.9,9.3-11.9
		c4.7,0,8.7,3.1,8.7,10.4v2.1h-14.9c0,5,3,8.5,6.8,8.5c2.8,0,5-1.5,6.3-3.9L362.4,393.9z M358.5,385.2c0-4.2-2-7-5.4-7
		c-3.8,0-5.9,2.8-6.2,7H358.5z"/>
	<path class="st0" d="M380.8,382.7c-0.9-2.8-2.7-4.5-5.4-4.5c-3.9,0-6.2,3.3-6.2,9.1c0,5.8,2.3,9.1,6.2,9.1c2.9,0,4.5-1,6.3-4.2
		l2.5,1.1c-2.3,3.9-4.3,5.8-8.8,5.8c-5.7,0-9.4-4.5-9.4-11.9c0-7.4,3.7-11.9,9.4-11.9c4.7,0,6.9,2.6,8.4,6.2L380.8,382.7z"/>
	<path class="st0" d="M391,375.9v-7.5h3.2v7.5h5.3v2.7h-5.3v16.3c0,1.1,0.7,1.6,2.6,1.6c1.1,0,2-0.1,2.8-0.2v2.6
		c-0.6,0.2-1.8,0.4-3.7,0.4c-3.4,0-4.9-0.9-4.9-3.8v-16.8h-3.7v-2.7H391z"/>
	<path class="st0" d="M409.3,370.4h-3.2v-3.8h3.2V370.4z M406.1,375.9h3.2v22.9h-3.2V375.9z"/>
	<path class="st0" d="M420.9,375.9v3.1h0.1c1.8-2,4.2-3.5,6.8-3.5c3.4,0,6.6,1.8,6.6,6.7v16.6h-3.2v-16.5c0-3-1.4-4-3.7-4
		c-2.4,0-5.1,1.9-6.6,3.5v17.1h-3.2v-22.9H420.9z"/>
	<path class="st0" d="M459.6,378.2c-1.3,0-2.7,0.2-3.5,0.6c0.7,0.8,1.6,2.5,1.6,4.7c0,4.5-3.7,8-8.4,8c-1.8,0-2.8-0.3-4-0.6
		c-1.2,0.3-1.8,1.1-1.8,2.1c0,1.1,0.7,1.7,1.9,1.7c10.8,0,14.3,1.9,14.3,6.4c0,3.3-3.3,6.2-10.4,6.2c-6.4,0-9.8-1.8-9.8-5.5
		c0-2.3,1.4-3.4,3.9-4.7c-1.8-0.5-2.9-1.9-2.9-3.3c0-2,1.3-2.8,3.1-3.9c-2.2-1.6-3.1-3.9-3.1-6.4c0-4.8,3.8-8,8.7-8
		c2.5,0,4.2,0.5,5.7,1.6c1.4-1,3.2-1.8,4.9-2V378.2z M448.7,397.8c-5,0-6.4,2.2-6.4,3.8c0,1.7,1.1,2.9,7.4,2.9
		c3.8,0,6.9-1.1,6.9-3.3C456.6,399,454.3,397.8,448.7,397.8 M448.9,378.2c-3.6,0-5.5,2.3-5.5,5.3c0,3,2.4,5.3,5.9,5.3
		c3.6,0,5.4-2.4,5.4-5.1C454.7,380.3,452.7,378.2,448.9,378.2"/>
	<polygon class="st0" points="486.5,370 486.5,398.8 483,398.8 483,370 473.5,370 473.5,367 496,367 496,370 	"/>
	<path class="st0" d="M503.9,399.2c-6.2,0-9.4-5.3-9.4-11.9c0-6.6,3.1-11.9,9.4-11.9c6.2,0,9.4,5.3,9.4,11.9
		C513.3,393.9,510.2,399.2,503.9,399.2 M503.9,378.2c-3.8,0-6.2,3.3-6.2,9.1c0,5.9,2.4,9.1,6.2,9.1c3.8,0,6.2-3.3,6.2-9.1
		C510.1,381.5,507.7,378.2,503.9,378.2"/>
	<path class="st0" d="M535.9,367v26.7c0,1.7-0.1,3.3,0.2,5h-2.9l-0.4-2.2c-1.1,1.4-3.3,2.7-6,2.7c-4,0-9.4-2.7-9.4-11.9
		c0-8.9,5.3-11.9,9.2-11.9c2.2,0,4.3,1.1,6,2.6l0.2,0.1V367H535.9z M532.8,381.4c-1.7-1.9-3.9-3.2-5.8-3.2c-3.7,0-6.5,2.4-6.5,9.3
		c0,5.8,2.5,9,6.5,9c2,0,3.5-0.9,5.8-3.1V381.4z"/>
	<path class="st0" d="M542.8,380.3c1.4-2.6,4.3-4.8,8.6-4.8c3.9,0,7.9,1.8,7.9,6.9v11.5c0,2.5,0.2,3.7,0.5,4.9h-3.3l-0.4-3.2
		c-1.6,1.8-4.1,3.6-7.6,3.6c-3.5,0-6.5-2.1-6.5-6.3c0-5,3.8-7.5,14-9.3v-1.2c0-3-2-4.2-4.7-4.2c-3.5,0-5.2,2-5.9,3.6L542.8,380.3z
		 M556.1,386.4c-7.3,1.3-10.8,3.4-10.8,6.6c0,2.1,2,3.5,3.8,3.5c2.3,0,5.2-1.7,7-3.8V386.4z"/>
	<path class="st0" d="M581.5,375.9l-8,24.9c-1.7,5.1-4.7,6.4-7.7,6.4c-1.1,0-1.7-0.2-2.3-0.3v-2.6c0.4,0,1,0.1,1.7,0.1
		c1.9,0,4.9-0.4,6-5.4l-8-23.1h3.3l6.2,17.5h0.1l5.4-17.5H581.5z"/>
	<rect x="583.4" y="393.9" class="st0" width="4.3" height="4.8"/>
	<path class="st0" d="M248.9,451.5v-31.7H260c6.8,0,9.7,3.9,9.7,8.9c0,5.3-3.7,8.7-11.7,8.7h-5.6v14.2H248.9z M252.4,434.4h6
		c5.8,0,7.8-2,7.8-5.8c0-3.8-2.2-5.8-7-5.8h-6.8V434.4z"/>
	<path class="st0" d="M280.2,452c-6.2,0-9.4-5.3-9.4-11.9c0-6.6,3.1-11.9,9.4-11.9c6.2,0,9.4,5.3,9.4,11.9
		C289.5,446.7,286.4,452,280.2,452 M280.2,431c-3.8,0-6.2,3.3-6.2,9.1c0,5.9,2.4,9.1,6.2,9.1c3.8,0,6.2-3.3,6.2-9.1
		C286.4,434.2,284,431,280.2,431"/>
	<polygon class="st0" points="292.4,428.7 295.6,428.7 300.3,446.3 300.4,446.3 304.8,428.7 308,428.7 312.6,446.3 312.7,446.3 
		317.1,428.7 320.4,428.7 314.2,451.5 311,451.5 306.5,433.9 306.4,433.9 301.8,451.5 298.6,451.5 	"/>
	<path class="st0" d="M342.4,446.7c-1.5,2.6-3.6,5.3-8.8,5.3c-5.1,0-9.9-3.5-9.9-11.9c0-7.4,3.7-11.9,9.3-11.9
		c4.7,0,8.7,3.1,8.7,10.4v2.1h-14.9c0,5,3,8.5,6.8,8.5c2.8,0,5-1.5,6.3-3.9L342.4,446.7z M338.6,438c0-4.2-2-7-5.4-7
		c-3.8,0-5.9,2.8-6.2,7H338.6z"/>
	<path class="st0" d="M347.9,428.7h3.2v4.5h0.1c1.8-3.1,3.7-4.9,7.4-4.9v3.2c-4,0.1-6,2.7-7.5,7.4v12.7h-3.2V428.7z"/>
	<path class="st0" d="M367.6,423.1h-3.2v-3.8h3.2V423.1z M364.4,428.7h3.2v22.9h-3.2V428.7z"/>
	<path class="st0" d="M379.2,428.7v3.1h0.1c1.8-2,4.2-3.5,6.8-3.5c3.4,0,6.6,1.8,6.6,6.7v16.6h-3.2V435c0-3-1.4-4-3.7-4
		c-2.4,0-5.1,1.9-6.6,3.5v17.1H376v-22.9H379.2z"/>
	<path class="st0" d="M417.9,431c-1.3,0-2.7,0.2-3.5,0.6c0.7,0.8,1.6,2.5,1.6,4.7c0,4.5-3.7,8-8.4,8c-1.8,0-2.8-0.3-4-0.6
		c-1.2,0.4-1.8,1.1-1.8,2.1c0,1.1,0.7,1.7,1.9,1.7c10.8,0,14.3,1.9,14.3,6.4c0,3.3-3.3,6.2-10.4,6.2c-6.4,0-9.8-1.8-9.8-5.5
		c0-2.3,1.4-3.4,3.9-4.7c-1.8-0.5-2.9-1.9-2.9-3.3c0-2,1.3-2.8,3.1-3.9c-2.2-1.6-3.1-3.9-3.1-6.4c0-4.8,3.8-8,8.7-8
		c2.5,0,4.2,0.5,5.7,1.6c1.4-1,3.2-1.8,4.9-2V431z M407,450.6c-5,0-6.4,2.2-6.4,3.8c0,1.7,1.1,2.9,7.4,2.9c3.8,0,6.9-1.1,6.9-3.3
		C414.9,451.7,412.6,450.6,407,450.6 M407.1,431c-3.6,0-5.5,2.3-5.5,5.3c0,3,2.4,5.3,5.9,5.3c3.6,0,5.4-2.4,5.4-5.1
		C412.9,433.1,411,431,407.1,431"/>
	<polygon class="st0" points="444.8,422.8 444.8,451.5 441.3,451.5 441.3,422.8 431.8,422.8 431.8,419.8 454.3,419.8 454.3,422.8 	
		"/>
	<path class="st0" d="M462.2,452c-6.2,0-9.4-5.3-9.4-11.9c0-6.6,3.1-11.9,9.4-11.9c6.2,0,9.4,5.3,9.4,11.9
		C471.6,446.7,468.5,452,462.2,452 M462.2,431c-3.8,0-6.2,3.3-6.2,9.1c0,5.9,2.4,9.1,6.2,9.1c3.8,0,6.2-3.3,6.2-9.1
		C468.4,434.2,466,431,462.2,431"/>
	<path class="st0" d="M477.3,451.5v-22.9h3.2v3l0.2-0.2c1.9-2.2,4.4-3.3,6.6-3.3c2.9,0,5,1.5,5.8,3.6c2-2.2,4.6-3.6,7.3-3.6
		c3,0,6.3,1.3,6.3,6.9v16.4h-3.2v-16.4c0-3.1-1.5-4.2-3.6-4.2c-2.8,0-4.7,1.8-6.4,3.5v17.1h-3.2v-16.4c0-3.1-1.5-4.2-3.6-4.2
		c-2.8,0-4.7,1.8-6.4,3.5v17.1H477.3z"/>
	<path class="st0" d="M521.7,452c-6.2,0-9.4-5.3-9.4-11.9c0-6.6,3.1-11.9,9.4-11.9c6.2,0,9.4,5.3,9.4,11.9
		C531.1,446.7,527.9,452,521.7,452 M521.7,431c-3.8,0-6.2,3.3-6.2,9.1c0,5.9,2.4,9.1,6.2,9.1c3.8,0,6.2-3.3,6.2-9.1
		C527.9,434.2,525.5,431,521.7,431"/>
	<path class="st0" d="M536.2,428.7h3.2v4.5h0.1c1.8-3.1,3.7-4.9,7.4-4.9v3.2c-4,0.1-6,2.7-7.5,7.4v12.7h-3.2V428.7z"/>
	<path class="st0" d="M551.3,428.7h3.2v4.5h0.1c1.8-3.1,3.7-4.9,7.4-4.9v3.2c-4,0.1-6,2.7-7.5,7.4v12.7h-3.2V428.7z"/>
	<path class="st0" d="M574.3,452c-6.2,0-9.4-5.3-9.4-11.9c0-6.6,3.1-11.9,9.4-11.9c6.2,0,9.4,5.3,9.4,11.9
		C583.6,446.7,580.5,452,574.3,452 M574.3,431c-3.8,0-6.2,3.3-6.2,9.1c0,5.9,2.4,9.1,6.2,9.1c3.8,0,6.2-3.3,6.2-9.1
		C580.5,434.2,578.1,431,574.3,431"/>
	<polygon class="st0" points="586.4,428.7 589.6,428.7 594.2,446.3 594.3,446.3 598.8,428.7 602,428.7 606.6,446.3 606.7,446.3 
		611.1,428.7 614.3,428.7 608.2,451.5 605,451.5 600.4,433.9 600.3,433.9 595.8,451.5 592.6,451.5 	"/>
	<rect x="616.3" y="446.7" class="st0" width="4.3" height="4.8"/>
	<path class="st0" d="M255,235.9c4.9,0,8.9,4.1,8.9,8.9c0,4.9-4.1,8.9-8.9,8.9c-4.9,0-8.9-4.1-8.9-8.9
		C246.1,239.9,250.1,235.9,255,235.9 M248.9,267.8h12.2V332h-12.2V267.8z"/>
	<path class="st0" d="M289.6,304.4c0,11.2,10.4,18.7,21.6,18.7c7.4,0,12.9-3.8,17.6-9.6l9.2,7c-6.8,8.8-16.1,13.1-28.4,13.1
		c-20.3,0-33-14.6-33-33.7c0-19.2,13.9-33.7,33.1-33.7c22.6,0,31.2,17.3,31.2,33.8v4.3H289.6z M328,294.6
		c-0.3-10.7-6.2-18.7-18.5-18.7c-12,0-19.9,10.2-19.9,18.7H328z"/>
	<path class="st0" d="M390.4,283.9c-2.8-3.5-7-6.4-13.1-6.4c-5.7,0-10.7,2.6-10.7,7.2c0,7.7,11,8.8,16.4,10
		c10.5,2.6,18.7,6.6,18.7,18.7c0,14.5-13.3,20.2-26,20.2c-10.6,0-18.4-2.7-24.8-11.4l9.2-7.6c3.9,3.9,8.5,7.6,15.6,7.6
		c6.2,0,13-2.6,13-8.1c0-7.3-10.1-8.7-15.4-9.9c-10.4-2.6-19.6-6-19.6-18.3c0-13.4,12.3-19.8,24.3-19.8c8.5,0,17.3,3,21.9,10.6
		L390.4,283.9z"/>
	<path class="st0" d="M445.6,266.2c19.1,0,34.1,15,34.1,33.7c0,18.7-15,33.7-34.1,33.7c-19.1,0-34.1-15-34.1-33.7
		C411.5,281.2,426.5,266.2,445.6,266.2 M445.6,322.2c13,0,21.1-9.3,21.1-22.3s-8.1-22.3-21.1-22.3c-13,0-21.1,9.3-21.1,22.3
		S432.6,322.2,445.6,322.2"/>
	<path class="st0" d="M220.1,282.2c0,40.6-32.9,73.4-73.4,73.4c-40.6,0-73.4-32.9-73.4-73.4c0-40.6,32.9-73.4,73.4-73.4
		C187.2,208.8,220.1,241.7,220.1,282.2"/>
	<path class="st1" d="M237.6,260.2c-0.9-1-7.3,1.7-7.3,1.7l-11.9,4.8c-10.7,4.4-22.4,9.1-33.3,13.6c-5.7-14.1-11.3-28-11.7-28.9
		c-0.9-2,0.1-4.8,2.2-5.7c0.9-0.4,12.5-6,25.7-12.4l29.8-14.5c0,0,2.7-1.3,2.4-1.8c-0.2-0.3-3,0.8-3,0.8l-31.7,12.9
		c0,0-24.5,10-25.4,10.4c-2.2,1-4.6,0.2-5.7-2.2c-0.4-0.8-8.7-18.1-8.7-18.1l-17.6-36.3c0,0-0.4-0.7-0.6-0.6c-0.3,0.1,0,0.9,0,0.9
		l17.7,44.7c0,0,4.5,11.1,4.7,11.4c0.9,2,0,4.7-2.2,5.7c-1.3,0.6-25.5,12.3-44.1,21.3c-5.8-12-19.5-40.2-19.5-40.2l-11.9-24.1
		c0,0-1.4-2.8-2.4-2.5c-0.9,0.4,0.3,3.4,0.3,3.4l10.6,26.4c5.6,13.8,11.5,28.2,16.4,40.2c-8.5,4.1-14.7,7.1-14.7,7.1
		c-1.3,0.6-1.1,1,0.2,0.4c0.4-0.2,6.6-2.7,15.1-6.2c5.9,14.4,10.2,25,10.7,26c1.6,3.6-0.1,8.4-3.9,10.1c-1.3,0.6-14.5,7-31.7,15.3
		l-61.5,29.7c0,0-4.3,2.1-4.1,2.8c0.2,0.7,4.8-1,4.8-1l65-25.8c0,0,29.9-12.2,31-12.7c3.4-1.5,8.6,0.4,10.1,3.9
		c0.6,1.3,16.9,35,16.9,35c12.5,25.5,27.5,55.9,27.5,55.9s0.7,1.6,1.4,1.3c0.5-0.2-0.2-1.9-0.2-1.9s-11.7-29.9-21.8-55.9
		c0,0-15-36.8-15.6-38.1c-1.6-3.6,0.1-8.5,3.9-10.1c1.5-0.7,19.8-9.5,41.4-20c6.2,12.7,11.9,24.2,12.1,24.8c0.6,1.3,1,1.1,0.4-0.2
		c-0.3-0.6-5.1-12.6-10.4-25.7c10.4-5.1,21.5-10.4,31.8-15.4l0,0l12.6-6C231.7,264.4,238.4,261.2,237.6,260.2 M140,298.7
		c-3.9,1.7-8.2,0.4-10.1-3.9c-0.5-1.2-5.4-11.3-12.1-25.1c19.1-7.8,44.1-17.9,45.3-18.5c1.9-0.9,4.8,0.2,5.7,2.2
		c0.4,0.9,6.9,14.3,13.6,28C160.3,290.4,141.5,298,140,298.7"/>
</g>
</svg>
