<?xml version="1.0" encoding="utf-8"?>
<!-- Generator: Adobe Illustrator 19.2.1, SVG Export Plug-In . SVG Version: 6.00 Build 0)  -->
<svg version="1.1" id="layer" xmlns="http://www.w3.org/2000/svg" xmlns:xlink="http://www.w3.org/1999/xlink" x="0px" y="0px"
	 viewBox="0 0 652 652" style="enable-background:new 0 0 652 652;" xml:space="preserve">
<style type="text/css">
	.st0{fill:#233D43;}
	.st1{fill:#E95517;}
</style>
<path class="st0" d="M134.4,337.4h19.7v12.4c0,6.2,0,12.5,9.6,12.5c9.7,0,9.7-6.4,9.7-15.9c0-7.6-1.5-10.8-6.7-14.3l-18.8-12.6
	c-10-6.8-12.8-14.3-12.8-25.2c0-8.4,0.8-16.4,7.7-22.2c4-3.3,11.2-6.4,21.6-6.4c11.5,0,27.3,4.7,27.3,23.1v10.6h-19.6v-7.7
	c0-5.2,0-10.9-8.7-10.9c-5.3,0-9.1,2-9.1,10.6c0,9,2,10.9,6.2,13.8l19.4,13.2c3.8,2.7,7.9,6.5,10.2,10.5c2.9,4.9,2.9,8.2,2.9,16.9
	c0,9.6,0,15.5-3.5,21.1c-5.9,9.6-18.2,10.6-25.5,10.6c-16.9,0-29.8-6.4-29.8-24.4V337.4z"/>
<polygon class="st0" points="214.8,267.8 266.7,267.8 266.7,284.2 234.5,284.2 234.5,309.4 264.8,309.4 264.8,325.7 234.5,325.7 
	234.5,358.6 268.1,358.6 268.1,375.2 214.8,375.2 "/>
<rect x="289.4" y="267.9" class="st0" width="19.6" height="107.2"/>
<path class="st0" d="M330,337.4h19.7v12.4c0,6.2,0,12.5,9.6,12.5c9.7,0,9.7-6.4,9.7-15.9c0-7.6-1.5-10.8-6.7-14.3l-18.8-12.6
	c-10-6.8-12.8-14.3-12.8-25.2c0-8.4,0.8-16.4,7.7-22.2c4-3.3,11.3-6.4,21.6-6.4c11.6,0,27.3,4.7,27.3,23.1v10.6h-19.6v-7.7
	c0-5.2,0-10.9-8.7-10.9c-5.3,0-9.1,2-9.1,10.6c0,9,2,10.9,6.2,13.8l19.4,13.2c3.8,2.7,7.9,6.5,10.2,10.5c2.9,4.9,2.9,8.2,2.9,16.9
	c0,9.6,0,15.5-3.5,21.1c-5.9,9.6-18.2,10.6-25.5,10.6c-16.9,0-29.8-6.4-29.8-24.4V337.4z"/>
<polygon class="st0" points="410.4,267.9 442.5,267.9 455.2,343 467.8,267.9 499.6,267.9 499.6,375.2 480,375.2 481.8,282.2 
	464.5,375.2 446,375.2 428.3,282.2 429.9,375.2 410.4,375.2 "/>
<rect x="520.9" y="267.9" class="st0" width="19.6" height="107.2"/>
<path class="st0" d="M600.6,307.1v-13.7c0-8-1.4-12.6-10-12.6c-8.6,0-9.1,6.8-9.1,11.7V350c0,6.4,1.1,12.1,9.9,12.1
	c9.3,0,9.3-6.7,9.3-13.2v-14h19.6v15.2c0,8.7,0,27.3-29.2,27.3c-5.6,0-14.6-1-20.8-5.1c-8.5-5.6-8.5-14-8.5-19.9v-58.3
	c0-8.7,0.5-14.6,5.3-19.9c7.7-8.4,19.9-8.5,24-8.5c29.2,0,29.2,17.3,29.2,24.9v16.6H600.6z"/>
<path class="st0" d="M54.7,301.9h34.6c0-19-15.5-34.4-34.6-34.4c-19.1,0-34.5,15.4-34.5,34.4c0,19,15.5,34.4,34.5,34.4V301.9z"/>
<path class="st1" d="M61.4,343.2H26.8c0,19,15.5,34.4,34.6,34.4c19.1,0,34.5-15.4,34.5-34.4c0-19-15.5-34.4-34.5-34.4V343.2z"/>
</svg>
